<svg xmlns:rdf="http://www.w3.org/1999/02/22-rdf-syntax-ns#" xmlns="http://www.w3.org/2000/svg" xml:space="preserve" height="147.86" viewBox="0 0 209.74085 147.8623" width="209.74" version="1.1" xmlns:cc="http://creativecommons.org/ns#" xmlns:xlink="http://www.w3.org/1999/xlink" xmlns:dc="http://purl.org/dc/elements/1.1/"><g transform="matrix(1.25 0 0 -1.25 -42.357 326.71)"><g transform="matrix(1.6875 0 0 1.6875 -79.78 -137.83)"><path d="m160.95 177.42-7.388 4.21-12.67 4.528-13.108 2.781-10.791 0.628-12.208-0.628-12.669-3.019-15.928-6.673-5.342-3.237-2.6 22.403 2.699 2.084 1.589 0.954 2.82 1.707 5.124 2.582 10.804 4.091 12.234 2.979 12.762 1.259 11.407-0.961 10.943-2.244 7.626-2.065 7.785-3.257 5.878-3.178 2.94-1.986 2.835-2.063-4.742-20.895z" fill="#fff"/><g fill="none"><path d="m128.07 187.82 1.585-4.942 1.573-4.918-3.401-0.013-3.4-0.012v-4.81-4.809h11.833 11.834v4.809 4.81l-2.177-0.027-2.178-0.028-1.266 3.557-1.266 3.556s-4.775 1.303-6.514 1.675c-1.529 0.328-6.623 1.152-6.623 1.152zm3.565 25.679-3.724 10.456-3.714 10.605h-7.109-7.11l-3.774-10.506-3.783-10.615s4.26 0.606 5.63 0.745c1.725 0.175 5.243 0.387 5.243 0.387l1.609 4.677 1.549 4.587 1.529-4.567 1.529-4.568c5.362-0.248 5.44-0.322 6.087-0.367 1.271-0.089 6.038-0.834 6.038-0.834zm-27.059-25.967-1.591-4.82-1.592-4.819 3.422 0.02 3.422 0.02v-4.81-4.81l-11.297-0.02-11.297-0.02v4.81 4.81h2.23 2.231l1.193 3.41 1.193 3.648c4.221 1.27 3.953 1.052 6.058 1.538 1.228 0.284 6.028 1.043 6.028 1.043z" stroke="#46166b" stroke-width="2.86"/><path d="m68.008 198.65c29.56 20.089 68.389 20.089 97.949 0" stroke="#46166b" stroke-width=".95280"/><path d="m52.803 1.7871-4.715 13.133-4.731 13.269s5.3253-0.75789 7.0391-0.93164c2.155-0.21875 6.5527-0.48437 6.5527-0.48437l2.0098-5.8457 1.9375-5.7344 1.9121 5.709 1.9102 5.7109c6.7025 0.31 6.7994 0.40148 7.6094 0.45898 1.5888 0.11125 7.5469 1.041 7.5469 1.041l-4.654-13.068-4.643-13.258h-8.8867-8.8887zm22.615 58.426 1.9824 6.1777 1.9648 6.1465-4.25 0.01758-4.25 0.01367v6.0137 6.0098h14.791 14.793v-6.0098-6.0137l-2.7227 0.0332-2.7227 0.03516-1.582-4.4453-1.582-4.4453s-5.9688-1.6288-8.1426-2.0938c-1.9112-0.41-8.2793-1.4395-8.2793-1.4395zm-29.367 0.35938s-6.0002 0.94969-7.5352 1.3047c-2.6312 0.6075-2.296 0.33438-7.5723 1.9219l-1.4922 4.5605-1.4902 4.2617h-2.7891-2.7871v6.0117 6.0137l14.121-0.02539 14.123-0.02539v-6.0117-6.0137l-4.2773 0.02539-4.2793 0.02539 1.9902-6.0234 1.9883-6.0254z" transform="matrix(.8 0 0 -.8 67.74 235.99)" stroke="#fff" stroke-width="1.1912"/></g><path d="m52.98 2.0508-9.556 26.767s5.5166-0.74211 7.1953-0.91211c2.1125-0.215 5.8262-0.47461 5.8262-0.47461l4.4648-12.242 4.3418 12.084c6.5688 0.30375 6.0676 0.39492 6.8613 0.45117 1.5575 0.10875 7.6934 1.0215 7.6934 1.0215l-9.4082-26.695h-17.418zm-6.919 57.566s-6.1791 0.92984-7.6816 1.2773c-2.5788 0.59625-1.6549 0.32977-6.8262 1.8848l-3.2207 10.137h-5.7637v11.486l27.68-0.04883v-11.486l-8.6836 0.04883 4.4961-13.299z" transform="matrix(.8 0 0 -.8 67.74 235.99)" fill="#eeb211"/><path d="m154.27 181.22c-24.542 11.166-50.101 11.166-74.643 0" stroke="#46166b" stroke-width="1.192" fill="none"/><path d="m58.992 30.271c-2.54 0.06125-5.0781 0.21398-7.6094 0.45898v3.584c0.43-0.04125 0.86102-0.07898 1.291-0.11523v17.854c-0.43 0.03625-0.86102 0.07606-1.291 0.11719v3.7402c2.275-0.21875 4.5573-0.365 6.8398-0.4375 4.8762-0.12875 6.9446-1.7822 6.9434-7.0859 0-3.6588-1.2644-5.8465-3.7969-6.2715v-0.26953c2.2225-0.53875 3.2422-2.2279 3.2422-5.4316 0-4.345-1.7616-6.2226-5.6191-6.1426zm11.643 0.35547c-1.4662 7.0212-2.9362 14.072-4.4062 21.154-0.08625-0.0037-0.17156-0.008-0.25781-0.01172v3.7402c2.0662 0.08625 4.1295 0.23195 6.1895 0.43945v-3.7422c-0.46125-0.045-0.92156-0.087-1.3828-0.12695 0.22625-1.3175 0.45148-2.6349 0.67773-3.9512 1.5688 0.14625 3.1348 0.32867 4.6973 0.54492 0.20375 1.365 0.40633 2.7302 0.61133 4.0977-0.42875-0.0625-0.85836-0.12025-1.2871-0.17773v3.7383c2.1463 0.28375 4.286 0.63383 6.416 1.0488v-3.7402c-0.305-0.05875-0.61031-0.11763-0.91406-0.17383-1.4312-7.4125-2.8679-14.796-4.3066-22.148-2.0075-0.28875-4.0196-0.51891-6.0371-0.69141zm-26.398 1.0371c-2.4425 0.40375-4.8748 0.8932-7.291 1.4707v3.5859c0.4225-0.10125 0.84578-0.19867 1.2695-0.29492v17.854c-0.42375 0.09625-0.84703 0.19367-1.2695 0.29492v3.7402c4.2388-1.0112 8.5259-1.757 12.836-2.2383v-8.9082c-1.3212 0.1475-2.6401 0.32008-3.9551 0.51758v5.168c-1.1325 0.16875-2.2624 0.3582-3.3887 0.56445v-17.855c0.59875-0.10875 1.1988-0.21375 1.7988-0.3125v-3.5859zm38.777 0.76172v3.5859c0.5 0.10375 0.9993 0.20906 1.498 0.32031v17.854c-0.49875-0.11-0.99805-0.21656-1.498-0.32031v3.7402c2.305 0.475 4.5968 1.0282 6.873 1.6582v-3.7402c-0.53-0.14625-1.0586-0.28828-1.5898-0.42578-0.03875-5.8875-0.07914-11.777-0.11914-17.664 1.6662 7.5562 3.3252 15.152 4.9727 22.791 2.02 0.62875 4.0262 1.3205 6.0137 2.0742v-21.594c0.4825 0.1825 0.96407 0.36859 1.4453 0.55859v-3.5859c-2.225-0.88-4.4727-1.6825-6.7402-2.4062v3.584c0.50125 0.16 1 0.32344 1.5 0.49219 0 0 0.17102 13.368 0.50976 17.842 0.0012-0.005-1.9051-8.5889-2.1113-9.5352-0.88875-4.4225-1.7801-8.8317-2.6738-13.23-2.6725-0.77375-5.3676-1.4393-8.0801-1.998zm-25.191 1.3105c1.9125-0.0625 2.5898 0.98609 2.5898 3.5273 0 2.355-0.73859 3.3528-2.5898 3.4141-0.30875 0.01125-0.61828 0.02544-0.92578 0.03906v-6.9434c0.3075-0.0125 0.61703-0.02586 0.92578-0.03711zm16.092 0.42383c0.3675 2.78 0.55008 4.4605 0.64258 4.9355 0.3375 2.0075 0.67617 4.018 1.0137 6.0293-1.165-0.155-2.3325-0.29-3.5-0.40625 0.3475-1.8938 0.69617-3.7858 1.0449-5.6758 0.09125-0.53 0.36758-2.1953 0.79883-4.8828zm-43.994 0.9082c-1.8788 0.5875-3.7445 1.2281-5.5957 1.9219-1.3975 7.6712-2.7873 15.374-4.166 23.105-0.15125 0.065-0.30188 0.12836-0.45312 0.19336v3.7402c1.9362-0.8325 3.892-1.6052 5.8633-2.3164v-3.7402c-0.44125 0.16-0.88226 0.32203-1.3223 0.48828 0.215-1.4188 0.43148-2.8357 0.64648-4.252 1.4975-0.5525 3.0052-1.0695 4.5215-1.5508 0.19875 1.2738 0.39695 2.5473 0.5957 3.8223-0.4175 0.13-0.83305 0.26344-1.248 0.39844v3.7383c2.0775-0.675 4.1711-1.2831 6.2773-1.8281v-3.7402c-0.30125 0.0775-0.60234 0.15633-0.90234 0.23633-1.4125-6.7688-2.818-13.507-4.2168-20.217zm71.937 3.0371v4.6621c0.51625 0.2125 1.0312 0.43039 1.5449 0.65039 1.8662 6.75 3.7142 13.555 5.543 20.418v5.3633c-0.74873-0.37375-1.5009-0.73875-2.2559-1.0938v4.8633c3.2188 1.5138 6.38 3.1984 9.4688 5.0547v-4.8633c-0.725-0.43625-1.455-0.86305-2.1875-1.2793v-5.3633c1.8012-4.9238 3.5795-9.7923 5.332-14.604 0.4675 0.30375 0.93274 0.61062 1.3965 0.92188v-4.6621c-2.515-1.6888-5.0856-3.2604-7.7031-4.7129v4.6641c0.51875 0.2875 1.0358 0.57875 1.5508 0.875-0.51502 1.8088-1.032 3.622-1.5508 5.4395-0.47 1.7438-0.94156 3.7436-1.4141 5.9961-0.72875-4.1988-1.2053-6.6494-1.3516-7.3281-0.54875-2.4388-1.1018-4.872-1.6543-7.3008 0.51625 0.255 1.0324 0.5143 1.5449 0.7793v-4.6621c-2.71-1.3975-5.4687-2.6696-8.2637-3.8184zm-82.373 0.31055c-2.465 1.0662-4.8994 2.2316-7.2969 3.4941v4.6621c0.42625-0.22375 0.85375-0.44531 1.2812-0.66406v18.348c0.0025 3.6638-0.62867 5.6699-2.4824 6.6699-1.7775 0.9725-2.31-0.35781-2.3125-3.8203v-18.596c0.42-0.24125 0.83922-0.4818 1.2617-0.7168v-4.6621c-2.5425 1.4175-5.0401 2.9493-7.4863 4.5918v4.6621c0.42875-0.2875 0.85852-0.57227 1.291-0.85352v17.145c0.01125 7.9988 2.0316 10.195 7.1016 7.3926 5.0575-2.7175 7.2671-7.4855 7.2559-15.936v-16.443c0.46125-0.20625 0.92297-0.41008 1.3867-0.61133v-4.6621zm7.763 0.727c0.355 2.6162 0.53234 4.2147 0.62109 4.6484 0.32625 1.8575 0.65226 3.7149 0.97852 5.5762-1.1288 0.36625-2.2504 0.75125-3.3691 1.1562 0.33375-2.0488 0.66695-4.0956 1.002-6.1406 0.08875-0.57125 0.35383-2.3602 0.76758-5.2402zm30.91 4.9961c1.9138-0.0575 2.7148 1.1059 2.7148 3.7246 0 2.975-0.73914 3.9265-2.8066 3.9902-0.39 0.0125-0.78188 0.02742-1.1719 0.04492v-7.7129c0.42125-0.0175 0.84242-0.03312 1.2637-0.04687z" transform="matrix(.8 0 0 -.8 67.74 235.99)" stroke="#eeb211" stroke-width="1.072" fill="#46166b"/><path d="m77.43 22.119-5.0645 5.8828 2.6055 0.4707 4.8359 0.27148-2.377-6.625zm-1.8926 37.334 4.166 13.27-8.6289 0.0293v11.486h28.992v-11.486l-5.334 0.06836-3.4004-10.203c-6.2588-1.7075-5.7554-1.3414-7.6816-1.7539-1.8725-0.40125-8.1133-1.4102-8.1133-1.4102zm-29.502 0.16406-1.7461 0.18555-21.744 24.6 27.678-0.04883v-11.486l-8.6816 0.04883 4.4941-13.299z" transform="matrix(.8 0 0 -.8 67.74 235.99)" fill="#46166b"/></g></g></svg>